<svg width="237" height="237" viewBox="0 0 237 237" fill="none" xmlns="http://www.w3.org/2000/svg">
<circle cx="118.5" cy="118.5" r="117" stroke="white" stroke-width="3"/>
<path d="M155.823 26.4147C155.643 26.4915 155.089 26.9367 154.6 27.4126C152.497 29.4698 151.861 30.1145 150.932 31.0817C149.334 32.7397 148.274 33.8143 147.524 34.5512C147.133 34.935 146.676 35.4263 146.53 35.6566C146.383 35.8715 146.024 36.2092 145.731 36.4088C145.421 36.593 145.013 37.0229 144.801 37.3453C144.59 37.6677 144.361 37.9286 144.312 37.9286C144.215 37.9286 143.84 38.2817 142.356 39.8323C140.97 41.2754 139.372 42.918 138.606 43.6856C138.182 44.1001 137.595 44.7142 137.318 45.0212C136.699 45.7121 136.324 45.7581 135.932 45.1747C135.769 44.9445 135.296 44.4532 134.889 44.0694C134.481 43.6856 133.813 43.0101 133.405 42.5496C132.28 41.2754 130.047 39.1568 129.818 39.1568C129.672 39.1568 129.639 39.3717 129.737 39.9551C129.802 40.4003 129.867 41.1372 129.9 41.567C129.916 42.0123 130.03 42.5803 130.145 42.8413C130.259 43.1022 130.308 43.5167 130.242 43.7777C130.193 44.0387 130.226 44.3918 130.34 44.576C130.454 44.7602 130.601 45.3897 130.666 45.9884C130.797 47.2165 130.862 47.7232 131.139 49.2123C131.237 49.7957 131.318 50.594 131.302 50.9778C131.302 51.3462 131.4 51.8068 131.514 51.9756C131.644 52.1599 131.791 52.8507 131.84 53.5108C132.052 56.1667 132.134 56.7347 132.28 56.8729C132.362 56.965 132.427 57.4563 132.427 57.9782C132.427 58.5155 132.509 58.9914 132.59 59.0375C132.688 59.0836 132.753 59.4981 132.753 59.9433C132.753 60.4038 132.851 61.0025 132.965 61.2789C133.112 61.6013 133.177 62.2 133.128 62.8601C133.095 63.551 133.144 63.9962 133.275 64.1343C133.503 64.4107 133.764 66.0994 133.797 67.5578C133.813 68.1105 133.894 68.6631 133.976 68.7859C134.057 68.9088 134.188 69.4921 134.269 70.0909C134.335 70.6742 134.465 71.7182 134.547 72.3936C134.644 73.0691 134.758 74.0056 134.807 74.4662C134.856 74.9267 134.954 75.4487 135.019 75.6175C135.15 75.8785 135.525 78.7493 135.525 79.3327C135.525 79.4402 135.378 79.5323 135.215 79.5323C135.052 79.5323 134.873 79.4402 134.824 79.3327C134.791 79.2406 133.307 77.3523 131.563 75.157C129.802 72.9617 127.715 70.3365 126.9 69.3233C125.205 67.1894 124.177 65.8998 123.101 64.5795C122.678 64.0729 121.976 63.1979 121.553 62.6605C121.112 62.1079 120.656 61.632 120.542 61.6013C120.362 61.5399 120.346 62.461 120.428 66.9591C120.493 69.9527 120.607 74.4354 120.705 76.9225C120.917 83.401 121.145 91.5682 121.275 97.3251C121.357 101.47 121.341 102.284 121.161 102.222C121.031 102.176 120.493 101.117 119.939 99.8582C118.276 96.0356 117.167 93.5179 116.287 91.5835C115.83 90.5703 114.95 88.5899 114.363 87.1929C113.759 85.7958 113.156 84.4909 112.993 84.276L112.732 83.9076L112.488 84.4449C112.357 84.7366 112.064 85.8112 111.836 86.8244C110.58 92.2897 109.732 95.9895 109.521 96.8032C109.325 97.5708 107.222 106.536 106.83 108.24C106.765 108.532 106.553 109.468 106.358 110.313C106.146 111.157 105.771 112.815 105.51 113.997C105.233 115.179 104.874 116.73 104.695 117.451C104.059 119.985 103.912 120.614 103.407 122.825C103.13 124.053 102.836 125.327 102.755 125.665C102.673 126.002 102.559 126.586 102.51 126.97C102.331 128.182 101.858 128.919 100.439 130.163C99.7058 130.808 98.7602 131.683 98.3526 132.082C97.945 132.496 96.2657 133.985 94.6028 135.413C92.9398 136.826 91.1464 138.361 90.6084 138.821C90.0704 139.297 89.3856 139.819 89.0758 139.988C88.7824 140.157 87.7389 140.971 86.7607 141.784L84.9836 143.258V145.238C84.9836 146.328 85.0489 147.249 85.1304 147.296C85.2445 147.372 86.1575 146.728 86.9238 146.037C87.0542 145.914 87.5596 145.545 88.065 145.192C88.5704 144.839 89.9073 143.795 91.0323 142.859C92.1735 141.938 93.9669 140.479 95.0266 139.635C96.0864 138.791 97.9939 137.163 99.2493 136.012C102.282 133.233 104.32 131.498 105.167 130.93C105.559 130.685 107.124 129.794 108.673 128.981C113.352 126.494 115.863 125.127 116.123 124.974C116.254 124.897 116.955 124.529 117.672 124.191C118.39 123.838 119.368 123.316 119.824 123.04C120.297 122.748 121.129 122.318 121.667 122.057C122.205 121.796 123.052 121.351 123.542 121.059C124.031 120.767 124.455 120.522 124.487 120.522C124.52 120.522 125.694 119.923 127.096 119.171C128.482 118.434 130.014 117.636 130.503 117.375C130.976 117.129 131.742 116.715 132.182 116.484C132.639 116.239 133.226 115.932 133.487 115.793C133.764 115.655 134.514 115.241 135.15 114.888C135.802 114.519 136.373 114.228 136.438 114.228C136.487 114.228 137.383 113.752 138.427 113.168C142.372 110.988 143.465 110.405 144.573 109.883C145.209 109.591 145.975 109.177 146.301 108.962C146.627 108.762 147.426 108.332 148.095 108.01C149.497 107.335 150.85 106.521 150.85 106.352C150.85 106.291 145.274 106.245 138.476 106.245C131.661 106.245 125.987 106.199 125.84 106.152C125.612 106.076 125.612 106.03 125.84 105.692C126.069 105.385 127.096 104.786 131.139 102.637C131.938 102.222 137.954 98.9217 140.09 97.7396C141.035 97.2177 142.617 96.3579 143.595 95.8206C144.59 95.2987 145.829 94.6078 146.367 94.2854C146.905 93.9631 148.013 93.3797 148.812 92.9805C149.627 92.566 150.394 92.1515 150.524 92.0441C150.654 91.9366 151.355 91.5528 152.073 91.169C153.899 90.2018 160.127 86.7937 162.67 85.366C163.844 84.7059 165.165 83.9997 165.605 83.7847C166.86 83.186 167.545 82.6641 167.284 82.4952C167.17 82.4338 162.23 82.3877 156.312 82.4184C143.562 82.4645 138.557 82.4798 138.492 82.4645C138.476 82.4491 138.573 82.2649 138.737 82.0193C139.03 81.5894 140.856 79.87 152.497 69.093C168.996 53.8179 172.208 50.8089 172.208 50.64C172.208 50.379 171.164 50.5479 167.447 51.4383C165.328 51.9449 163.355 52.3594 163.094 52.3594C162.605 52.3594 162.589 52.3441 162.589 51.6225C162.589 51.208 162.475 50.6554 162.328 50.379C162.181 50.0873 162.116 49.7343 162.181 49.4733C162.23 49.2276 162.165 48.7978 162.018 48.4447C161.839 48.0762 161.79 47.6771 161.855 47.3547C161.904 47.0477 161.871 46.6946 161.741 46.495C161.545 46.1573 161.333 44.8063 161.219 43.2097C161.187 42.7798 161.072 42.2732 160.958 42.0737C160.844 41.8741 160.73 41.3675 160.697 40.9376C160.632 39.7095 160.388 38.4967 160.159 38.0975C160.029 37.8672 159.98 37.5141 160.045 37.1303C160.111 36.7312 160.062 36.3935 159.882 36.0557C159.736 35.7794 159.654 35.3649 159.687 35.0271C159.736 34.7201 159.654 34.2288 159.524 33.9372C159.393 33.6455 159.328 33.1849 159.393 32.8932C159.442 32.5708 159.377 32.187 159.246 31.9261C159.116 31.6958 159.002 31.1738 159.002 30.7747C159.002 30.3755 158.937 29.8382 158.855 29.5772C158.774 29.3162 158.627 28.7482 158.513 28.3337C158.203 27.0288 156.833 26.0463 155.823 26.4147ZM151.779 35.8101C151.747 35.9175 151.616 36.286 151.502 36.6237C151.388 36.9615 151.127 37.7137 150.932 38.3124C150.736 38.8958 150.475 39.6941 150.361 40.0779C150.247 40.4617 150.035 41.1525 149.872 41.6131C149.709 42.0737 149.236 43.486 148.812 44.7602C148.405 46.0191 147.915 47.4468 147.752 47.9227C147.573 48.3986 147.426 48.8899 147.426 49.0127C147.426 49.1355 147.247 49.5654 147.019 49.9645C146.79 50.3637 146.611 50.7935 146.611 50.9317C146.611 51.0699 146.546 51.3923 146.448 51.6532C145.763 53.6797 145.405 54.5087 145.242 54.5087C145.128 54.5087 144.459 53.91 143.742 53.1731C140.334 49.6575 139.764 49.0895 139.454 48.8745C138.883 48.5061 139.046 48.0916 140.269 46.9402C140.889 46.3261 141.818 45.4511 142.307 44.9905C142.796 44.5146 143.187 44.0694 143.187 43.9926C143.187 43.9312 143.579 43.5014 144.051 43.0715C144.508 42.6417 145.307 41.8587 145.796 41.3521C146.285 40.8455 147.068 40.0472 147.508 39.5867C147.964 39.1261 148.747 38.3124 149.285 37.7598C150.866 36.1171 151.404 35.6259 151.649 35.6259C151.763 35.6259 151.828 35.718 151.779 35.8101ZM156.165 36.8694C156.214 36.9615 156.263 37.3913 156.263 37.8212C156.263 38.2664 156.361 38.7884 156.475 39.0033C156.605 39.2489 156.654 39.6634 156.605 40.124C156.54 40.692 156.573 40.9223 156.801 41.1525C157.029 41.3828 157.062 41.6285 157.013 42.2272C156.948 42.7491 157.013 43.0869 157.176 43.3172C157.323 43.5167 157.388 43.8391 157.323 44.2229C157.274 44.6221 157.339 44.9905 157.518 45.3283C157.714 45.6507 157.779 46.0344 157.73 46.4182C157.698 46.756 157.763 47.2012 157.91 47.4929C158.04 47.7539 158.121 48.1684 158.073 48.3833C158.024 48.6136 158.105 48.9974 158.252 49.2583C158.431 49.5807 158.48 49.9338 158.415 50.4097C158.333 50.901 158.382 51.1927 158.578 51.469C158.904 51.9449 158.855 53.2805 158.513 53.4494C158.382 53.5108 157.567 53.7257 156.719 53.8946C155.872 54.0788 153.948 54.5394 152.448 54.9078C150.932 55.2763 149.595 55.5833 149.464 55.5833C149.269 55.5833 149.285 55.4605 149.546 54.7697C149.709 54.3398 150.198 52.9274 150.622 51.6686C151.046 50.3944 151.714 48.4293 152.122 47.2933C152.513 46.1573 152.97 44.7295 153.133 44.1462C153.296 43.5474 153.589 42.6877 153.752 42.2272C154.094 41.3214 154.812 39.1261 155.187 37.7905C155.317 37.3453 155.464 36.9001 155.513 36.8387C155.627 36.6544 156.018 36.6698 156.165 36.8694ZM138.802 53.0656C140.008 54.3091 141.59 55.9364 142.34 56.704C143.073 57.4716 143.725 58.2699 143.791 58.4848C143.888 58.8226 142.861 62.0004 142.519 62.4149C142.454 62.507 142.242 63.1211 142.046 63.7966C141.851 64.4721 141.541 65.2704 141.361 65.5621C141.182 65.8537 141.003 66.3297 140.97 66.606C140.954 66.8977 140.823 67.2354 140.693 67.3736C140.383 67.696 139.927 68.8934 139.927 69.3693C139.927 69.5535 139.747 69.968 139.535 70.2904C139.307 70.5975 139.046 71.1501 138.932 71.5186C138.818 71.8717 138.655 72.148 138.557 72.1173C138.362 72.0559 137.921 69.7685 138.019 69.2619C138.068 69.0469 138.019 68.7092 137.921 68.4943C137.824 68.264 137.693 67.6499 137.612 67.0972C137.302 64.9326 137.171 63.9041 137.008 62.6605C136.911 61.9544 136.764 61.1407 136.666 60.8337C136.584 60.5266 136.552 60.1275 136.601 59.9433C136.65 59.7437 136.568 59.2831 136.421 58.8993C136.258 58.5002 136.177 58.0396 136.242 57.8247C136.291 57.6251 136.226 56.9189 136.079 56.2742C135.932 55.6294 135.867 54.9232 135.916 54.7236C135.981 54.4933 135.932 54.217 135.769 54.0021C135.623 53.8025 135.525 53.3419 135.525 52.8507C135.525 52.4055 135.46 51.8989 135.362 51.7454C135.166 51.3923 135.296 51.0238 135.655 50.9317C136.47 50.7321 136.633 50.8242 138.802 53.0656ZM160.795 56.5965C160.795 56.6426 159.589 57.8093 158.121 59.1603C151.209 65.5774 142.503 73.6218 142.421 73.6986C142.242 73.8521 142.552 72.8542 142.943 72.0866C143.497 70.9659 145.584 65.7309 146.122 64.1036C146.986 61.5092 147.834 59.5595 148.193 59.3445C148.405 59.2064 149.236 58.9607 150.051 58.8072C150.85 58.6384 151.584 58.4695 151.649 58.4234C151.73 58.3774 152.301 58.2392 152.904 58.1164C155.741 57.5023 158.203 56.9343 159.246 56.658C159.833 56.5044 160.795 56.4737 160.795 56.5965ZM125.889 73.76C126.199 74.1131 126.949 75.0495 127.585 75.8478C128.204 76.6461 129.395 78.1506 130.21 79.1945C131.025 80.2385 132.085 81.5434 132.557 82.096C133.014 82.6334 133.454 83.2474 133.503 83.447C133.585 83.7848 133.275 84.537 132.085 86.8091C131.824 87.3157 131.612 87.7916 131.612 87.8837C131.612 87.9758 131.367 88.421 131.058 88.8509C130.748 89.2961 130.422 89.8948 130.308 90.2018C130.193 90.5242 129.867 91.1537 129.59 91.6296C129.313 92.1208 128.971 92.7503 128.84 93.0419C128.71 93.3336 128.27 94.1626 127.862 94.8842C125.156 99.5358 125.188 99.5051 125.237 97.801C125.237 97.5093 125.172 95.4368 125.074 93.1955C124.976 90.9541 124.878 87.7148 124.846 85.9801C124.83 84.2453 124.715 82.1114 124.634 81.221C124.438 79.3634 124.373 72.5779 124.569 72.409C124.634 72.3476 124.83 72.4704 125.009 72.716C125.188 72.9463 125.58 73.4069 125.889 73.76ZM141.965 85.673C143.318 85.673 144.687 85.6577 145.03 85.6577C145.763 85.6423 147.263 85.6577 147.883 85.673C148.127 85.673 148.698 85.673 149.138 85.6577C150.524 85.6116 151.877 85.6116 152.562 85.6423C152.921 85.673 153.556 85.6423 153.964 85.5809C154.714 85.4888 155.007 85.6116 154.796 85.9187C154.698 86.0568 153.622 86.6402 150.442 88.2982C150.002 88.5285 148.845 89.1579 147.883 89.6952C146.921 90.2172 145.16 91.1997 143.97 91.8598C142.78 92.5046 141.003 93.4871 140.008 94.0245C139.03 94.5771 137.481 95.4061 136.584 95.8974C135.688 96.3733 133.862 97.3712 132.541 98.1234C131.221 98.8757 130.063 99.4897 129.965 99.4897C129.786 99.4897 129.77 99.0752 129.965 98.9678C130.03 98.9217 130.226 98.584 130.373 98.2155C130.52 97.8471 131.269 96.4808 132.019 95.1912C132.786 93.9016 133.405 92.8117 133.405 92.7656C133.405 92.6735 133.617 92.259 135.443 88.6667C136.046 87.4846 136.601 86.3639 136.682 86.1643C136.796 85.9033 136.943 85.8266 137.432 85.8266C137.775 85.8266 138.166 85.7498 138.296 85.673C138.427 85.5809 138.769 85.5502 139.03 85.5963C139.307 85.6577 140.628 85.6884 141.965 85.673ZM114.787 97.4479C115.243 98.4458 116.466 101.117 117.509 103.404C118.553 105.677 119.449 107.688 119.498 107.857C119.564 108.164 119.221 108.716 117.346 111.234C115.83 113.291 113.857 115.778 111.167 119.063C109.129 121.55 107.238 123.239 107.45 122.364C107.874 120.675 108.037 119.969 108.216 119.063C108.347 118.465 108.591 117.436 108.771 116.761C108.95 116.085 109.211 114.949 109.357 114.228C109.504 113.506 109.7 112.708 109.781 112.462C109.896 112.078 110.613 109.008 111.232 106.168C111.314 105.83 111.444 105.385 111.526 105.17C111.607 104.955 111.77 104.233 111.885 103.558C111.999 102.883 112.26 101.67 112.471 100.871C112.683 100.073 112.961 98.8143 113.091 98.0774C113.482 95.9895 113.58 95.6518 113.825 95.6518C113.89 95.6518 114.33 96.4654 114.787 97.4479ZM137.97 109.622C137.97 109.714 137.22 110.129 136.307 110.558C135.378 110.988 134.514 111.418 134.383 111.526C134.253 111.648 133.405 112.094 132.509 112.539C131.612 112.984 130.666 113.506 130.389 113.69C130.128 113.874 129.558 114.166 129.117 114.35C128.694 114.535 128.041 114.872 127.65 115.133C127.275 115.379 126.166 115.993 125.172 116.5C122.074 118.081 120.313 119.017 119.286 119.631C118.748 119.954 118.259 120.215 118.194 120.215C118.129 120.215 117.118 120.752 115.912 121.412C112.83 123.116 112.08 123.362 112.928 122.425C116.613 118.327 118.96 115.471 120.77 112.831C121.373 111.955 122.205 110.835 122.612 110.344L123.346 109.468H130.65C135.443 109.468 137.97 109.515 137.97 109.622Z" fill="white"/>
<path d="M52.5394 134.968C49.0993 135.244 45.2354 136.396 42.4475 137.946C35.926 141.569 32.3067 147.126 31.6708 154.449C31.3284 158.533 31.9643 162.402 33.4642 165.272C34.5729 167.391 35.5511 168.558 37.0021 169.51C38.8933 170.738 39.6596 170.937 42.2681 170.953C44.2898 170.953 44.5669 170.922 45.7408 170.507C48.5613 169.54 51.1373 167.069 53.0122 163.568C53.7296 162.217 54.5773 160.268 54.9197 159.208C55.0338 158.825 55.2784 158.026 55.474 157.443C56.5012 154.158 57.4142 149.583 57.8544 145.392C58.0174 143.918 58.213 142.659 58.3109 142.598C58.5065 142.475 59.1749 142.567 60.2836 142.874C65.1747 144.256 67.8647 148.063 67.8647 153.605C67.8647 158.103 66.4137 161.496 63.4954 163.768C62.3867 164.643 60.1042 165.794 58.5717 166.255C57.3652 166.623 54.7404 167.115 53.2404 167.268C52.6698 167.33 52.2133 167.406 52.2133 167.437C52.2133 167.483 52.4253 168.036 52.6861 168.696C52.947 169.341 53.5502 170.845 54.0067 172.027C54.4632 173.209 54.9197 174.376 55.0175 174.606C55.1969 175.036 55.2132 175.052 56.1914 174.944C58.0337 174.745 61.2781 174.038 63.2997 173.378C66.5442 172.319 68.8267 171.029 70.9135 169.049C74.4188 165.748 76.0328 162.386 76.848 156.721C77.1415 154.726 77.1578 154.188 77.0111 153.144C76.9132 152.469 76.7502 151.287 76.6687 150.535C75.9024 144.302 71.5167 138.806 65.4681 136.518C61.7346 135.106 57.2837 134.584 52.5394 134.968ZM49.7189 144.425C49.295 150.519 47.0614 158.533 45.1213 160.866C44.2246 161.956 43.6539 162.279 42.6268 162.279C41.8279 162.279 41.6812 162.217 41.2247 161.772C40.3443 160.882 39.953 159.577 39.8552 157.259C39.8226 156.061 39.8552 154.802 39.9693 154.188C40.6867 150.32 42.7083 146.973 45.5452 144.993C46.2788 144.486 49.3765 142.935 49.67 142.935C49.7515 142.935 49.7678 143.58 49.7189 144.425Z" fill="white"/>
<path d="M107.694 142.49C101.809 143.211 96.8034 147.018 94.4557 152.576C92.6786 156.798 92.5808 161.94 94.1949 164.903C96.2654 168.649 100.651 170.338 107.042 169.816C110.221 169.555 113.417 168.711 114.379 167.882C114.623 167.667 114.819 167.467 114.819 167.436C114.819 167.406 114.966 166.7 115.145 165.871C115.341 165.026 115.585 163.798 115.716 163.123C115.846 162.447 116.205 160.697 116.531 159.223C117.167 156.245 117.297 155.032 116.971 154.725C116.808 154.572 115.618 154.51 111.933 154.479C109.292 154.449 106.879 154.464 106.602 154.51C105.885 154.633 105.526 155.37 105.412 156.997L105.314 158.256L108.02 158.317C109.537 158.348 110.792 158.425 110.89 158.517C111.134 158.763 109.895 164.443 109.537 164.719C109.439 164.811 108.542 165.026 107.564 165.21C105.819 165.533 105.77 165.533 104.319 165.272C102.559 164.949 101.515 164.489 100.618 163.629C99.8033 162.831 99.3957 162.109 99.0859 160.866C98.4175 158.164 99.3305 154.341 101.368 151.47C103.292 148.753 105.477 147.464 109.047 146.926C110.221 146.742 110.58 146.757 112.145 147.003C113.694 147.249 114.199 147.418 116.025 148.277L118.145 149.275L118.503 148.876C118.846 148.492 119.384 146.711 119.384 145.975C119.384 145.775 119.237 145.33 119.074 144.977C118.161 143.119 112.569 141.891 107.694 142.49Z" fill="white"/>
<path d="M133.047 143.105C132.72 143.227 132.329 143.719 131.563 144.978C130.699 146.39 126.851 152.991 124.878 156.445C124.618 156.906 124.275 157.489 124.112 157.75C123.965 157.996 123.558 158.687 123.215 159.286C122.873 159.869 121.699 161.88 120.607 163.738C117.248 169.402 117.248 169.341 120.705 169.341C123.427 169.341 123.297 169.433 125.09 166.102C125.922 164.551 126.672 163.2 126.753 163.093C126.949 162.863 136.519 162.817 136.976 163.047C137.204 163.154 137.302 163.461 137.383 164.306C137.563 166.056 138.052 169.019 138.198 169.141C138.264 169.218 139.421 169.264 140.742 169.264C142.535 169.264 143.22 169.218 143.383 169.065C143.66 168.788 143.611 166.946 143.269 164.966C142.975 163.2 141.981 156.983 141.639 154.603C141.41 153.129 141.035 150.642 140.351 146.313C139.943 143.765 139.747 143.197 139.274 143.074C138.655 142.905 133.536 142.936 133.047 143.105ZM135.264 148.57C135.313 148.816 135.378 149.276 135.427 149.614C135.476 149.952 135.557 150.535 135.622 150.919C135.671 151.303 135.851 152.607 136.014 153.836C136.193 155.064 136.421 156.691 136.535 157.474C136.633 158.257 136.666 158.948 136.601 159.009C136.438 159.178 129.231 159.163 129.068 159.009C128.987 158.932 129.052 158.671 129.215 158.411C129.378 158.15 129.916 157.213 130.422 156.307C130.927 155.417 131.791 153.882 132.329 152.915C132.883 151.947 133.682 150.474 134.106 149.645C134.53 148.831 134.954 148.155 135.036 148.155C135.101 148.155 135.215 148.34 135.264 148.57Z" fill="white"/>
<path d="M153.345 143.226C153.051 143.395 152.709 143.702 152.546 143.917C152.252 144.362 151.649 146.987 149.986 155.216C149.66 156.782 148.926 160.298 148.339 163.03C147.753 165.763 147.263 168.265 147.263 168.572C147.263 169.294 147.394 169.34 149.79 169.34C152.089 169.34 152.334 169.217 152.578 168.112C153.654 163.214 156.361 150.181 156.475 149.306C156.589 148.369 156.866 147.54 157.046 147.54C157.209 147.54 157.323 147.97 157.518 149.536C157.991 153.098 160.339 168.25 160.469 168.664C160.616 169.064 160.746 169.171 161.252 169.248C162.149 169.386 164.366 169.355 165.116 169.186C165.882 169.017 165.996 168.895 167.398 166.438C168.018 165.379 168.67 164.258 168.866 163.967C169.061 163.675 169.518 162.907 169.876 162.278C170.219 161.649 171.458 159.53 172.599 157.596C175.143 153.297 175.224 153.159 177.017 150.027C177.8 148.661 178.501 147.54 178.583 147.54C178.664 147.54 178.729 147.571 178.729 147.602C178.729 147.663 176.985 155.953 174.947 165.625C174.441 168.02 174.311 168.925 174.441 169.048C174.686 169.278 177.963 169.401 178.811 169.232C179.593 169.064 179.626 168.987 180.457 164.888C181.11 161.679 182.968 152.806 183.946 148.292C184.729 144.685 184.762 143.856 184.191 143.318C183.8 142.935 183.767 142.935 180.735 142.935C179.055 142.935 177.392 143.011 177.066 143.088C176.137 143.334 175.175 144.5 173.3 147.602C172.371 149.121 170.871 151.593 169.974 153.067C169.078 154.541 167.692 156.828 166.909 158.133C164.953 161.388 164.855 161.556 164.692 161.403C164.627 161.342 164.268 159.545 163.893 157.442C163.534 155.324 163.127 153.021 162.996 152.299C162.866 151.578 162.54 149.582 162.263 147.863C161.725 144.439 161.431 143.656 160.551 143.242C160.176 143.073 159.328 142.996 156.964 142.965C154.111 142.935 153.817 142.95 153.345 143.226Z" fill="white"/>
<path d="M191.951 143.135C191.739 143.227 191.429 143.488 191.266 143.703C191.005 144.056 190.337 146.712 189.978 148.922C189.897 149.383 189.424 151.67 188.919 153.988C188.429 156.306 187.826 159.101 187.598 160.206C187.386 161.296 186.897 163.568 186.555 165.241C185.951 168.02 185.919 168.312 186.147 168.711C186.31 169.033 186.538 169.171 186.995 169.248C187.989 169.402 201.326 169.356 201.782 169.202C202.206 169.033 202.402 168.419 202.614 166.454L202.728 165.502H197.494H192.261V165.149C192.261 164.765 193.696 157.964 193.793 157.857C193.842 157.826 195.636 157.811 197.804 157.811C199.956 157.826 201.978 157.796 202.288 157.734C202.826 157.642 202.874 157.581 203.266 156.414C203.494 155.754 203.673 154.925 203.673 154.587V153.988H199.271C195.685 153.988 194.837 153.942 194.772 153.773C194.706 153.605 195.619 148.692 195.978 147.31L196.108 146.85L201.309 146.773L206.526 146.696L206.82 146.113C207.113 145.514 207.488 143.319 207.325 143.073C207.179 142.843 192.424 142.904 191.951 143.135Z" fill="white"/>
</svg>
